<?xml version="1.0" encoding="UTF-8" standalone="no"?>
<!-- Created with Inkscape (http://www.inkscape.org/) -->

<svg
   version="1.1"
   id="svg1"
   width="1189.4399"
   height="1152"
   viewBox="0 0 1189.4399 1152"
   sodipodi:docname="pusa.svg"
   inkscape:version="1.4.2 (2aeb623e1d, 2025-05-12)"
   xmlns:inkscape="http://www.inkscape.org/namespaces/inkscape"
   xmlns:sodipodi="http://sodipodi.sourceforge.net/DTD/sodipodi-0.dtd"
   xmlns="http://www.w3.org/2000/svg"
   xmlns:svg="http://www.w3.org/2000/svg">
  <defs
     id="defs1" />
  <sodipodi:namedview
     id="namedview1"
     pagecolor="#505050"
     bordercolor="#eeeeee"
     borderopacity="1"
     inkscape:showpageshadow="0"
     inkscape:pageopacity="0"
     inkscape:pagecheckerboard="0"
     inkscape:deskcolor="#505050"
     showgrid="false"
     inkscape:zoom="0.52314871"
     inkscape:cx="447.29156"
     inkscape:cy="633.66304"
     inkscape:window-width="1920"
     inkscape:window-height="1080"
     inkscape:window-x="0"
     inkscape:window-y="0"
     inkscape:window-maximized="1"
     inkscape:current-layer="g1" />
  <g
     inkscape:groupmode="layer"
     inkscape:label="Image"
     id="g1">
    <path
       style="fill:#ffffff"
       d="m 412.81914,1078.7153 c 1.2264,-1.722 1.2264,1.722 0,0 z m 1.92,-0.48 c 2.4528,-3.444 2.4528,3.444 0,0 z m 2.88,-0.3442 c 10.2473,-7.5418 67.2213,-19.301 24.96,-11.7428 -20.7615,4.5226 -31.0326,3.6773 -26.3397,-1.9202 -15.8604,1.6637 -20.8028,0.1071 -26.0603,0.8072 -1.3534,-1.8281 -42.6254,1.8498 -27.76,-7.7616 16.5711,0.5837 62.6979,-2.862 21.5143,-2.7428 -18.6592,4.093 -65.0288,-7.8874 -24.99,-9.0755 -36.0062,-7.0865 -9.6167,-13.3544 -5.765,-11.7212 -28.0207,-5.8154 64.4376,-20.1369 21.9311,-15.8822 -18.7273,5.7836 -57.6891,9.2375 -17.4904,0.8586 48.1298,-7.6773 91.3003,-30.91596 138.1535,-43.41727 55.7361,-18.09227 114.6006,-34.49259 167.4652,-56.94285 18.612,-2.63356 44.5011,-18.31225 13.5206,-7.70835 6.2572,-8.48743 30.9506,-7.96074 27.8485,-23.49905 -24.8244,-6.64505 -52.8873,23.00065 -79.8388,27.28184 -20.0649,4.8213 37.3204,-24.67765 -0.2399,-7.52141 -10.2527,1.57494 -39.304,11.8775 -39.4051,4.37174 -10.8909,-2.11024 -24.9562,6.00731 -20.3139,-3.53468 -12.0342,-3.61993 -32.1559,14.03671 -39.8518,15.47016 14.8869,-30.81889 -9.2306,5.08444 -9.5744,-10.87704 0.1385,-3.07417 -17.4465,2.31978 0.159,-14.07246 -16.1335,4.08838 -12.7289,-0.75897 -27.7459,7.78315 7.6101,-22.09139 0.1087,-10.88062 -17.9763,3.9116 18.8275,-16.04331 27.0831,-37.95833 44.7259,-57.59942 13.5366,-30.617 45.5892,-54.42975 62.6136,-85.36491 -17.2721,2.53051 -42.2534,50.36445 -61.8746,69.08113 -4.9854,14.65282 -40.9773,39.06306 -17.0967,11.28874 11.3338,-13.55532 53.6343,-62.57862 43.0311,-56.89922 -36.5968,23.94515 -67.724,57.92978 -109.3016,73.15025 24.4528,-19.17551 58.9412,-39.00521 84.558,-61.59394 17.447,-10.91225 64.9463,-49.66429 21.1422,-19.29726 -40.2546,26.59268 -75.5858,60.25703 -118.0456,83.5262 -12.9291,26.4679 -24.2482,18.10925 -21.2517,8.64046 -13.1001,4.56453 -65.7867,38.23841 -55.6293,19.27327 6.2375,1.47936 6.5583,-23.14275 -8.3422,-11.6944 -4.5614,-4.17902 6.0191,-13.76731 3.1102,-14.95155 1.7189,-8.55415 9.706,-11.92647 11.04,-4.64594 7.4738,-13.08029 0.3278,-26.4087 -0.4873,-40.34428 2.8925,-12.03978 -14.882,28.51488 -9.0653,-5.88978 -10.9537,22.1354 1.767,-14.65138 -4.2493,-18.00019 -12.9282,17.82034 15.325,-34.37222 -8.8483,-0.71981 -0.9415,-12.71651 3.2625,-23.84894 7.6399,-34.80071 11.3678,-13.13289 23.898,-39.91838 29.1293,-48.81296 -18.1971,9.63682 -43.777,58.16265 -42.9975,51.90391 7.8718,-32.0291 35.4455,-53.40958 54.3185,-75.81025 21.5407,-13.8262 44.3139,-35.50117 64.32,-54.83547 -18.0322,5.98624 -41.085,5.23401 -59.5428,27.27311 -11.5818,14.20603 -21.0201,47.20432 -33.7651,46.24631 20.5681,-17.86058 -25.9896,6.4453 2.7949,-17.34415 -21.6187,6.46805 -12.4598,2.13408 -15.562,-10.04999 -4.5558,-2.53708 25.8018,-23.51192 -7.2855,-3.74924 5.1067,-10.29735 28.862,-26.99567 12.5138,-24.0962 0.6869,1.56267 -4.1507,-7.03754 -14.9627,4.87564 14.7921,-16.45423 10.5429,-27.97307 4.6049,-29.29686 11.0965,-19.64572 11.0273,-24.16704 -4.9345,-6.70314 1.9749,-11.14209 -12.5358,12.3404 0.6609,-10.19495 4.3678,-24.57924 27.7974,-46.961 43.8276,-66.7595 16.2241,-13.66037 44.3728,-44.11852 8.295,-17.96124 -6.6077,-8.87849 23.4015,-28.48785 23.4452,-44.08953 -16.1708,7.60412 -27.5899,-1.45681 -25.242,1.68483 3.0914,-10.09867 -21.6577,7.28322 -2.7124,-9.83566 -9.5566,-4.67506 -16.0189,6.31879 -18.4912,-7.56255 -21.7266,16.00759 11.9874,-28.27828 -13.1814,-6.55715 -2.1596,-7.72054 18.5972,-28.61042 -3.6464,-13.92425 -14.9773,-12.53667 18.1088,-25.50135 16.9912,-41.39644 20.5785,-21.23544 -15.399,8.24385 -22.6766,15.58338 -10.1845,5.14274 13.3333,-16.17069 11.5133,-22.77462 13.3809,-10.94367 50.8361,-42.43715 14.0758,-25.31097 -20.7986,10.41714 1.9524,-9.85472 -12.472,-6.89337 10.5373,-1.35575 7.3238,-11.90241 -5.0824,2.17501 -11.1407,-3.70322 22.8986,-25.45042 -4.4738,-8.0288 -19.6985,9.71494 20.8327,-29.27022 -12.3608,-9.87682 2.6277,-13.1609 -11.9194,-13.2672 -19.611,-23.0856 2.5882,-16.4836 -22.7191,-17.4967 -13.2311,-35.6476 10.0903,-13.5244 -22.2617,-23.0615 7.8195,-35.2852 13.5636,-20.1654 -11.3853,-10.3318 -5.0326,-24.499 8.3119,-24.5051 6.0958,-14.2332 -5.0016,-27.7416 10.8849,-17.4125 23.1116,-27.885 8.8284,-29.3784 1.4009,-18.7151 25.874,-31.1656 -5.8385,-20.166 6.2089,-15.58 6.1202,-11.138 -5.2558,-11.0155 13.5209,-4.372 -3.9877,-12.7179 9.1395,-19.2185 22.883,-14.0617 -1.2772,-18.043 -3.2984,-6.72 -23.3111,-9.6501 40.4063,-31.840001 51.2665,-17.642 20.6531,-12.024901 9.0203,12.3787 29.244,1.3696 -14.3581,19.4231 21.5663,-2.760601 17.8308,12.1839 1.8951,3.7074 -0.029,17.228 16.7292,7.627 -18.0441,17.8633 24.259,-2.7882 4.1097,17.2553 15.0596,-5.7413 60.0585,-28.8284 49.4103,-10.6783 21.9431,-12.2288 28.4758,12.5657 45.36,-2.5752 25.3113,-22.4562 66.9923,-49.585801 93.813,-53.005101 24.7693,3.2464 -19.585,18.9836 -13.1477,26.2568 44.0983,-31.3287 -34.1635,41.838401 9.5747,7.210701 -2.0599,0.7674 -6.385,21.2264 -0.2994,15.6207 0.2921,0.6713 24.7526,3.7188 -1.0717,15.1397 4.0211,-0.6258 18.8932,-6.5703 3.0594,8.121 14.5397,-1.6504 31.6607,-14.1088 12.9566,10.3091 -22.4472,29.6431 36.8253,-11.2147 0.2469,12.5741 6.2961,12.8693 8.0734,8.8444 16.2107,15.4838 -17.0594,19.8847 -2.0335,22.3151 0.2619,16.2093 -2.8298,10.2747 10.6042,-1.9783 3.4951,13.7239 15.5913,-3.5662 22.7701,-1.2335 4.5005,8.3824 -5.9267,10.7704 -25.2955,15.4374 -19.1892,35.1533 7.1821,7.3531 25.7692,-0.7287 28.3796,13.7439 -1.0268,20.4926 11.9014,-1.0465 17.3108,4.8922 -0.8144,12.9093 -3.7759,18.0911 -14.5322,26.1541 -18.856,18.6145 -8.2531,8.2128 6.8077,13.2898 -11.5135,7.0096 -27.0694,19.3842 -0.7678,7.5937 21.278,-13.5881 36.4597,-8.6491 45.8312,-4.282 16.6831,-1.8145 -13.6089,22.5307 10.7087,12.8439 -13.1578,15.7744 3.9375,15.6309 1.1268,13.6102 -17.8539,5.6018 -39.9549,36.36997 -7.3607,18.21889 21.3401,-21.16189 15.3646,5.83306 42.6405,-13.11319 22.3758,-22.5929 32.215,10.00941 28.656,6.1823 19.1963,-8.0827 -4.2338,15.67229 9.1617,12.74317 5.7486,11.4603 -38.3437,32.47078 -5.459,15.6197 8.7501,-1.77969 19.1854,4.08379 0.9228,15.75634 -22.9702,17.7588 15.9219,3.75435 -6.8174,15.56539 5.2959,14.63275 -8.8548,33.2782 -22.3562,49.02163 7.9529,-8.52309 56.2776,-58.98264 38.0369,-29.42794 9.6836,-12.41913 24.5817,15.84622 24.6033,14.4466 14.0817,-14.83571 31.5396,-5.61485 39.7874,-3.59905 19.988,-11.96732 -10.0536,27.72248 2.4604,32.20735 1.7418,5.04629 12.9304,1.01716 14.5816,16.85221 10.2869,15.15261 -20.1847,50.18907 -20.7575,75.99575 -1.2496,16.42762 -38.0563,75.80907 -5.493,42.37827 11.3669,-27.64368 23.3247,-58.17547 24.6148,-87.6732 13.1902,2.8015 -8.2727,59.75604 -15.2163,79.244 -6.4144,17.13722 11.8434,14.35213 17.3021,17.97156 15.3925,-4.30792 3.8966,12.316 23.245,2.86167 -13.3489,21.60559 24.471,2.65829 14.418,20.73647 -7.3961,29.16537 -12.195,40.37549 -32.7927,69.80285 -10.8882,22.75907 -35.056,37.77854 -47.3684,58.19685 1.2541,0.33813 40.5661,-24.24896 12.3927,0.0864 -15.3871,10.56757 -35.4384,40.12598 -6.1578,12.39234 14.3404,-16.67618 25.6489,-18.73588 5.4725,0.12484 -44.0763,23.63796 26.8289,32.2663 37.5058,53.29687 18.2624,9.60103 17.6075,31.89531 17.3903,49.26194 19.1112,42.14781 -29.4932,73.00225 -61.1631,89.45982 -38.4359,17.7937 -78.8998,31.12977 -118.9952,44.67377 -24.7846,4.9437 -64.1545,15.1133 -81.7225,14.7898 -6.7384,0.2531 -8.3766,-0.5942 -15.4478,2.4 -4.6965,-2.6291 -19.6034,0.1012 -14.4147,-0.48 -5.9906,1.0264 -31.4673,3.3827 -50.5581,5.613 -44.3796,6.9925 -88.131,26.5825 -131.8269,31.4836 z m 46.08,-15.4958 c -1.2264,-1.722 -1.2264,1.722 0,0 z m 1.92,0 c -1.2264,-1.722 -1.2264,1.722 0,0 z m 2.88,-0.96 c -1.2264,-1.722 -1.2264,1.722 0,0 z m 2.88,-0.96 c -1.2264,-1.722 -1.2264,1.722 0,0 z m -117.44,-9.76 c -2.7885,-1.4567 -0.3017,2.0601 0,0 z m 2.24,0.16 c -1.2264,-1.722 -1.2264,1.722 0,0 z m 362.0512,-35.7963 c -8.275,1.8791 3.3256,1.3781 0,0 z m -327.4912,-0.6837 c -1.2264,-1.722 -1.2264,1.722 0,0 z m 330.24,0 c -1.2263,-1.722 -1.2263,1.722 0,0 z m 3.52,-0.16 c -2.7885,-1.4567 -0.3017,2.0601 0,0 z m 2.88,-0.96 c -2.7885,-1.4567 -0.3017,2.0601 0,0 z m 109.6051,-42.55997 c 23.4408,-15.25344 62.1221,-37.4698 52.3604,-71.30667 -6.1838,-12.33444 -12.4592,48.14158 -32.4309,52.10667 -0.9573,2.5353 -38.9024,28.59749 -19.9295,19.2 z m 20.9571,-27.90568 c 16.4169,-15.49169 13.6185,-25.62232 -0.2507,-3.98129 l -4.8076,7.7535 c -1.8877,4.58591 8.6269,-10.61719 5.0583,-3.77221 z m -331.8422,-42.40941 c -2.1481,-2.48995 -4.1794,7.74887 0,0 z m 37.12,1.51509 c -2.0601,0.3017 1.4567,2.78849 0,0 z m 78.72,-1.92 c -2.7885,-1.45673 -0.3017,2.06013 0,0 z m -285.28,-11.83989 c 12.038,-5.59906 -3.7053,-2.45004 -5.3352,1.54329 z m 221.28,-3.04745 c -6.9763,-1.38031 -4.7514,9.47488 0,0 z m 4.8,3.47068 c -2.9819,-3.48151 -1.8217,4.83399 0,0 z m 126.46,-1.00334 c -3.837,-0.68189 -3.011,1.59694 0,0 z m -119.26,-2.3 c -1.161,-3.50991 -2.3676,3.41979 0,0 z m -222.72,-2.88 c -1.161,-3.50991 -2.3676,3.41979 0,0 z m 223.2,-1.44 c -1.2264,-1.72198 -1.2264,1.72198 0,0 z m 2.88,-1.44 c -2.3676,-3.41979 -1.161,3.50991 0,0 z m -10.08,-0.96 c -1.1922,-3.78467 -3.4448,3.65491 0,0 z m -223.68,-3.84 c -1.161,-3.50991 -2.3676,3.41979 0,0 z m -6.24,-3.1447 c -5.1244,-0.6089 -5.6435,7.93475 0,0 z m -11.52,1.7047 c -1.2264,-1.72198 -1.2264,1.72198 0,0 z m 1.44,-2.4 c 0.8247,-3.46822 -3.0126,3.58648 0,0 z m 539.0315,-6.8631 c -7.56,-19.79973 -7.2045,-4.24534 0.6775,3.96176 z m -539.8315,1.4231 c -2.0601,0.3017 1.4567,2.78849 0,0 z m 17.84,-2.87579 c -5.2865,-1.55814 -0.9594,1.68021 0,0 z m -0.2751,-15.24648 c -5.3131,0.84384 -6.6223,8.49462 0.8288,3.32481 z m -2.8449,-6.67773 c -1.2264,-1.72198 -1.2264,1.72198 0,0 z m 3.0025,-3.12 c 5.1825,-5.6591 -6.7114,5.22007 0,0 z m -9.7225,-23.76 c -1.2264,-1.72198 -1.2264,1.72198 0,0 z m 466.56,-26.88 c -1.2263,-1.72198 -1.2263,1.72198 0,0 z m 1.6,-2.08 c -2.7885,-1.45673 -0.3017,2.06013 0,0 z M 580.56934,757.2321 c 16.8238,-10.75423 21.8296,-26.19442 0.2709,-4.29955 -5.414,3.74325 -14.3392,14.48959 -0.2709,4.29955 z m 274.83,-25.09966 c 12.3663,-12.39557 34.4849,-47.45338 8.4401,-13.94487 -13.4629,16.21341 -41.4165,50.32727 -12.224,18.24801 z m -500.5002,-50.05711 c -2.0601,0.3017 1.4567,2.78849 0,0 z m -17.92,-0.8 c -1.2264,-1.72198 -1.2264,1.72198 0,0 z m 18.24,-1.92 c -1.2264,-1.72198 -1.2264,1.72198 0,0 z m 0.48,-3.36 c -3.6905,-3.4418 -2.4606,3.55573 0,0 z m 1.44,-1.92 c -3.6905,-3.4418 -2.4606,3.55573 0,0 z m 1.44,-2.88 c -3.4447,-3.65491 -1.1922,3.78467 0,0 z m 1.92,-1.92 c -2.4527,-3.44395 -2.4527,3.44395 0,0 z m 1.44,-2.88 c -2.4527,-3.44395 -2.4527,3.44395 0,0 z m 1.92,-1.92 c -2.3676,-3.41979 -1.161,3.50991 0,0 z m 1.54,-3.58 c -4.2085,-0.0898 2.4987,5.61151 0,0 z m 57.02,-0.74 c -1.2264,-1.72198 -1.2264,1.72198 0,0 z m -55.68,-0.96 c -1.2264,-1.72198 -1.2264,1.72198 0,0 z m 86.5247,-27.84 c 4.3827,-10.59729 -19.0407,25.54694 0,0 z m -11.1616,-4.87122 c 26.5661,-14.9989 6.8177,-9.29748 -5.6184,3.30386 z m 243.2692,-93.98569 c -14.7851,9.27208 -23.123,25.15617 0,0 z m 2.0077,-0.98309 c -1.2264,-1.72198 -1.2264,1.72198 0,0 z m 14.5699,-18.03452 c 14.3749,-14.0975 4.193,-9.91211 -3.4129,1.99145 z m -7.9008,-7.72988 c -6.2518,5.47377 -6.2429,8.29662 0,0 z m 6.6608,-8.7956 c -4.1453,2.36884 -10.9017,14.85827 0,0 z m 157.5501,3.84 c -1.2263,-1.72198 -1.2263,1.72198 0,0 z m -139.8313,-17.06294 c 5.7783,-10.14628 -13.5373,15.60845 0,0 z m -337.2887,0.74294 c -2.2786,-5.03711 -0.8308,5.07081 0,0 z m 355.7251,-4.44899 c 8.9367,-11.8049 -13.6033,14.12498 0,0 z m -353.8051,2.52899 c -1.2264,-1.72198 -1.2264,1.72198 0,0 z m 359.04,-7.68 c -1.2263,-1.72198 -1.2263,1.72198 0,0 z m -351.36,-0.96 c -1.2264,-1.72198 -1.2264,1.72198 0,0 z m 18.24,-6.72 c -1.2264,-1.72198 -1.2264,1.72198 0,0 z m 393.8242,-14.80066 c 8.3622,-12.53736 -15.5269,10.463 0,0 z m -14.6242,-6.31934 c -1.2263,-1.72198 -1.2263,1.72198 0,0 z m -451.68,-5.28 c 4.9112,-6.86621 -7.1641,6.98164 0,0 z m 419.04,0.48 c -1.2263,-1.72198 -1.2263,1.72198 0,0 z m -408.96,-8.39092 c -4.5788,1.07571 -4.7928,5.74644 0,0 z m 417.9663,-1.25894 c 1.7369,-5.05998 -3.4782,4.69669 0,0 z m -12.8463,-47.95014 c -1.2263,-1.72198 -1.2263,1.72198 0,0 z m -385.0927,-16.4311 c 7.1607,-9.38671 -14.0219,6.32366 0,0 z m 6.3727,-3.2489 c 0.8247,-3.46822 -3.0126,3.58648 0,0 z m 3.04,-1.6 c -2.7885,-1.45673 -0.3017,2.06013 0,0 z m 396.8,0.21666 c -2.2403,-3.2974 -2.765,1.82935 0,0 z m 2.88,-0.96 c -2.2403,-3.2974 -2.765,1.82935 0,0 z m -394.488,-1.76066 c -2.4077,-2.81603 -2.2419,3.55181 0,0 z m 384.4474,0.20013 c 0.9436,-4.85176 -5.4049,4.57733 0,0 z m 2.3606,-2.33613 c -1.2263,-1.72193 -1.2263,1.72198 0,0 z m -432.56,-18.48003 c 15.6058,-5.9525 -8.6852,1.1973 0,0 z m -6.16,-2.64 c -1.2264,-1.7219 -1.2264,1.722 0,0 z m 14.4,0 c -1.2264,-1.7219 -1.2264,1.722 0,0 z m -21.12,-4.32 c 5.1249,-3.8437 -7.8289,2.8891 0,0 z m 302.4,-4.8791 c 7.7943,-6.0465 -10.7376,6.0489 0,0 z m -313.6007,-2.2752 c 3.2938,-8.373 -12.6984,2.9329 0,0 z m 374.7207,-3.0857 c -2.7885,-1.4567 -0.3017,2.0602 0,0 z m -377.5003,-7.8834 c 2.2742,-15.3589 -19.0402,7.3256 0,0 z m -9.5397,-8.8453 c -15.7327,-19.7525 -10.3493,12.4629 0,0 z m -4.32,-12.8713 c -1.2264,-1.7219 -1.2264,1.722 0,0 z m 343.36,-4.96 c -2.7885,-1.4567 -0.3017,2.0602 0,0 z m -334.72,-2.72 c -1.2264,-1.7219 -1.2264,1.722 0,0 z m -2.4433,-11.9027 c 23.6315,-21.5235 -31.4659,0.086 0,0 z m 314.4433,-13.0573 c -1.2264,-1.7219 -1.2264,1.722 0,0 z m -304.32,-6.72 c -1.2264,-1.7219 -1.2264,1.722 0,0 z m -2.1783,-14.2163 c -6.8972,-3.2629 -6.1446,9.9475 0,2e-4 z m -12.2217,-0.1837 c -1.2264,-1.7219 -1.2264,1.722 0,0 z m 2.88,-0.9033 c -2.2403,-3.2974 -2.765,1.8293 0,0 z m 318.72,-21.1767 c -1.2264,-1.7219 -1.2264,1.722 0,0 z m -320.64,-20.16 c -1.2264,-1.7219 -1.2264,1.722 0,0 z m 5.8327,-5.8903 c 9.2479,-8.8236 -11.587,8.408 0,0 z m 7.5795,-3.2672 c -8.9924,-3.5824 4.1783,4.8618 0,0 z m 303.6864,-4.0425 c -8.2703,-1.7255 -6.6578,11.8384 0,0 z m -14.6986,-6 c -1.2264,-1.7219 -1.2264,1.722 0,0 z m -301.7,-44.26 c -3.837,-0.6819 -3.011,1.597 0,0 z m 99.14,0.1 c -1.2264,-1.7219 -1.2264,1.722 0,0 z m -7.68,-2.88 c -1.2264,-1.7219 -1.2264,1.722 0,0 z m 137.359,-15.4911 c 6.012,-6.3597 -15.3122,11.7557 0,0 z m -176.719,-0.8289 c -1.2264,-1.7219 -1.2264,1.722 0,0 z m -42.5,-6.82 c -3.837,-0.6819 -3.011,1.597 0,0 z m 102.02,962.02 c 1.2264,-1.722 1.2264,1.722 0,0 z m -54.72,-3.36 c 1.0301,-2.4868 1.0301,2.4868 0,0 z m 2.88,0 c 1.0301,-2.4868 1.0301,2.4868 0,0 z m 2.88,0 c 1.0301,-2.4868 1.0301,2.4868 0,0 z m 2.88,0 c 1.0301,-2.4868 1.0301,2.4868 0,0 z m 2.88,0 c 1.0301,-2.4868 1.0301,2.4868 0,0 z m 2.88,0.48 c 1.2264,-1.722 1.2264,1.722 0,0 z m 2.4,-0.48 c 2.3677,-3.4198 1.161,3.5099 0,0 z m 3.36,0 c 1.0301,-2.4868 1.0301,2.4868 0,0 z m 2.88,0 c 1.0301,-2.4868 1.0301,2.4868 0,0 z m 2.88,0 c 1.0301,-2.4868 1.0301,2.4868 0,0 z m -28.8,-0.48 c 1.2264,-1.722 1.2264,1.722 0,0 z m 291.84,-142.07997 c 1.2264,-1.72198 1.2264,1.72198 0,0 z m -125.76,-3.84 c 1.2264,-1.72198 1.2264,1.72198 0,0 z m 152.64,-7.68 c 1.2264,-1.72198 1.2264,1.72198 0,0 z m -235.2,-8.08519 c 14.6911,-19.20333 12.0859,0.39594 0,0 z m -110.4,-13.99481 c 1.2264,-1.72198 1.2264,1.72198 0,0 z m 5.76,-1.44 c 1.0301,-2.4868 1.0301,2.4868 0,0 z m 8.6459,-3.6 c 2.4512,-10.75811 0.9425,9.09072 0,0 z m -7.2059,0.72 c 3.0126,-3.58648 -0.8247,3.46822 0,0 z m 95.52,-17.76 c 1.2264,-1.72198 1.2264,1.72198 0,0 z m -100.8,-0.96 c 1.2264,-1.72198 1.2264,1.72198 0,0 z m 6.72,-1.92 c 1.2264,-1.72198 1.2264,1.72198 0,0 z m -5.28,-8.16 c 1.161,-3.5099 2.3676,3.41979 0,0 z m 9.12,0.0338 c 7.5906,-10.00734 3.5669,5.01552 0,0 z m -4.8,-2.00795 c 9.1439,-16.96573 0.3344,8.86773 0,0 z m 4.8,-6.66583 c 1.0301,-2.4868 1.0301,2.4868 0,0 z m 8.6547,-1.68 c 3.4664,-7.43931 -0.3801,7.07263 0,0 z m -10.5747,-10.32 c 1.2264,-1.72198 1.2264,1.72198 0,0 z m 16.32,-122.88 c 1.2264,-1.72198 1.2264,1.72198 0,0 z m 8.3571,-12.01834 c 0.6688,-11.13207 4.8938,6.40511 0,0 z m 8.9229,-10.06168 c 1.2264,-1.72198 1.2264,1.72198 0,0 z m 7.7105,-2.93652 c 1.6878,-6.43145 4.5461,-2.01703 0,0 z m 1.8895,-8.58348 c 1.2264,-1.72198 1.2264,1.72198 0,0 z m -60.48,-18.24 c 1.2264,-1.72198 1.2264,1.72198 0,0 z m 1.92,-1.92 c 1.2264,-1.72198 1.2264,1.72198 0,0 z m 13.44,0 c 1.2264,-1.72198 1.2264,1.72198 0,0 z m 508.32,-56.16 c 3.0126,-3.58648 -0.8246,3.46822 0,0 z m -528.48,-2.94857 c 4.7731,-12.76338 1.5677,8.42593 0,0 z m 21.7455,-35.86212 c 11.2692,-9.93497 -9.0917,11.47391 0,0 z m 12.8145,-1.98931 c 1.2264,-1.72198 1.2264,1.72198 0,0 z m -3.84,-0.90556 c 11.8918,-18.44116 34.6865,-32.40724 9.8022,-6.09056 -2.3571,5.84788 -4.3382,5.02723 -9.8022,6.09056 z m -4.8,-1.97444 c 1.2264,-1.72198 1.2264,1.72198 0,0 z m 36.48,-60.77946 c 6.0426,-8.61963 6.4539,-0.17885 0,0 z m 14.8235,-7.41107 c 8.6292,-5.57867 -4.0235,5.30857 0,0 z m 468.3765,-16.44947 c 2.7885,-1.45673 0.3017,2.06013 0,0 z m -513.92,-16.64 c 1.0301,-2.4868 1.0301,2.4868 0,0 z m -17.76,-6.72 c 1.161,-3.5099 2.3676,3.41979 0,0 z m 1.76,-2.56 c 2.7885,-1.45673 0.3017,2.06013 0,0 z m 1.92,-1.92 c 2.7885,-1.45673 0.3017,2.06013 0,0 z m 448.48,-39.68 c 1.161,-3.50998 2.3677,3.41979 0,0 z m -451.68,-26.93666 c 2.765,-1.82935 2.2404,3.2974 0,0 z m 1.92,-1.86334 c 2.4528,-3.44395 2.4528,3.44395 0,0 z m 2.4,-1.92 c 2.4606,-3.55572 3.6905,3.44179 0,0 z m 2.8405,-1.98387 c -1.2567,-4.7849 4.3363,4.10108 0,0 z m 2.6417,-1.47295 c -1.981,-4.5482 4.4168,4.26654 0,0 z m 3.6378,-1.82318 c 1.2264,-1.72198 1.2264,1.72198 0,0 z m -1.92,-1.44 c 1.0301,-2.4868 1.0301,2.4868 0,0 z m 442.88,-3.52 c 2.7885,-1.45673 0.3017,2.06013 0,0 z m -0.32,-14.24003 c 1.2264,-1.7219 1.2264,1.722 0,0 z m -472.5854,-2.2183 c -9.2292,-8.3914 11.1781,3.7874 0,0 z m 5.0654,-0.1817 c 2.4528,-3.4439 2.4528,3.444 0,0 z m 407.04,0.48 c 1.2264,-1.7219 1.2264,1.722 0,0 z m -404.16,-1.44 c 2.4528,-3.4439 2.4528,3.444 0,0 z m -14.4,-4.1731 c 7.8996,-23.1934 3.0469,11.3693 0,0 z m 351.7716,-31.2362 c 5.5905,-3.9695 12.9713,-0.029 0,0 z m 8.5484,-2.6707 c 2.7885,-1.4567 0.3017,2.0602 0,0 z m -13.76,-43.04 c 1.2264,-1.7219 1.2264,1.722 0,0 z m -0.96,-2.88 c 1.2264,-1.7219 1.2264,1.722 0,0 z m -16.32,-4.8 c 1.2264,-1.7219 1.2264,1.722 0,0 z m 3.84,-0.48 c 2.4528,-3.4439 2.4528,3.444 0,0 z m -16.6916,-10.0162 c 13.2814,-7.0649 2.0863,6.8588 0,0 z m 5.8836,-4.5035 c -5.6524,-6.254 7.1331,1.4407 0,0 z m 15.608,-2.7603 c 1.0301,-2.4868 1.0301,2.4868 0,0 z m -11.84,-45.76 c 3.4296,-13.7518 11.6384,0.477 0,0 z m -9.2653,-2.96 c 1.9988,-8.9986 4.3877,3.2071 0,0 z m -14.4147,-55.4606 c 10.0538,-27.3064 22.7906,-5.8619 0,0 z m -183.36,-8.6194 c 1.2264,-1.7219 1.2264,1.722 0,0 z m 1.92,-0.96 c 1.2264,-1.7219 1.2264,1.722 0,0 z m -13.44,-2.4 c 2.4528,-3.4439 2.4528,3.444 0,0 z m 185.28,-7.2 c 1.2264,-1.7219 1.2264,1.722 0,0 z m -3.84,-3.84 c 1.2264,-1.7219 1.2264,1.722 0,0 z m -193.92,-4.8 c 1.2264,-1.7219 1.2264,1.722 0,0 z m -59.0733,-15.793401 c -12.2611,-9.3159 23.8827,-0.4861 0,0 z m -29.3476,-1.7779 c 12.7139,-11.4054 22.3579,3.4217 -0.9562,1.7865 z m 21.2209,-4.9124 c 11.981,-7.0565 4.8634,3.2726 0,0 z"
       id="path1" />
  </g>
</svg>
